<?xml version="1.0" encoding="utf-8"?>
<!-- Generator: Adobe Illustrator 24.2.1, SVG Export Plug-In . SVG Version: 6.00 Build 0)  -->
<svg version="1.1" id="Layer_1" xmlns="http://www.w3.org/2000/svg" xmlns:xlink="http://www.w3.org/1999/xlink" x="0px" y="0px"
	 viewBox="0 0 648.7 180.2" style="enable-background:new 0 0 648.7 180.2;" xml:space="preserve">
<style type="text/css">
	.st0{opacity:0.3;}
	.st1{fill:#FFFFFF;}
	.st2{opacity:0.3;fill:#FFFFFF;}
</style>
<g class="st0">
	<g>
		<g>
			<path class="st1" d="M40.8,83.4c0-5.8-0.1-8-0.3-12.3l-6.5-1v-4.2l20.7-7l1.7,1l0.7,8.2l0.5,1.6v33.2l-0.3,1.3v7.6
				c0,6.7,0.1,14.4,0.3,23.8H40.5c0.2-9.4,0.3-17,0.3-23.7V83.4z M64.3,130.8v5H34.7v-5l10.1-2.1h10.3L64.3,130.8z M64.9,68.2
				c-5.6,0-10.3,5.9-13.8,9.4l-1-1.8c6.1-11.4,13.1-16.8,22.4-16.8c11.5,0,20.7,9.3,20.7,26.9c0,17-10.7,27.4-22.6,27.4
				c-9.5,0-15.1-5.4-19.8-16.3l1-1.9c4.4,5.8,7.4,9.3,12.7,9.3c6.3,0,10.8-5.7,10.8-18.2S71.1,68.2,64.9,68.2z"/>
			<path class="st1" d="M127.3,82.3c4.4-1.3,11.9-3.3,16.8-4.4v4.4c-5,1.3-10.7,2.8-13.8,4.2c-4.8,2-7.9,5.6-7.9,10.6
				c0,5.3,2.8,7.7,6.4,7.7c2,0,3.7-0.8,7.1-3.3l4.3-3.2l1.1,1.5l-4.4,4.8c-5.1,5.4-8.4,8.7-16.1,8.7c-8.2,0-13.9-4.8-13.9-13.5
				C106.9,92.3,111,87,127.3,82.3z M135.4,103.1V76.6c0-9.4-1.8-12.1-8.6-12.1c-2.6,0-5.3,0.3-9.9,1.5l7.3-4.1l-0.8,7.3
				c-0.3,7-3.7,9.9-7.8,9.9c-3.8,0-6.3-1.8-7.1-5.3c0.6-8.8,9.1-14.8,24.3-14.8c13.6,0,18.9,5.7,18.9,19.9v23.7
				c0,2.1,0.9,3.1,2.4,3.1c1.1,0,2-0.6,3.2-2.3l2.8,1.9c-2.5,5.8-6.3,8-12.7,8C140.3,113.3,136.3,109.5,135.4,103.1z"/>
			<path class="st1" d="M191.5,35l1.7,1.1l-0.4,14.8v38.7c0,7.4,0.1,14.8,0.3,22.2h-17.5c0.2-7.4,0.3-14.8,0.3-22.2V45.3l-6.6-1.1
				v-4.5L191.5,35z M198.9,106.8v4.9H170v-4.9l10.1-2.1h8L198.9,106.8z"/>
			<path class="st1" d="M217.4,111.8c0.2-4.8,0.3-15.6,0.3-22.2v-5c0-5.8-0.1-9.1-0.3-13.3l-6.5-1v-4.2l22.1-7l1.8,1.1l-0.3,15.3v14
				c0,6.6,0.1,17.4,0.3,22.2H217.4z M239.9,106.8v4.9h-28.1v-4.9l9.8-2.1h8L239.9,106.8z M217,42.8c0-4.9,4-8.4,9-8.4s9,3.5,9,8.4
				c0,4.9-4,8.4-9,8.4S217,47.7,217,42.8z"/>
			<path class="st1" d="M258,111.8c0.2-4.8,0.3-15.6,0.3-22.2v-6.1c0-5.8,0-8-0.3-12.3l-6.5-1v-4.2l20.9-7l1.8,1.1l1,11.7v17.6
				c0,6.6,0.1,17.4,0.3,22.2H258z M280.3,106.8v4.9h-27.8v-4.9l9.8-2.1h8.1L280.3,106.8z M306.6,77.2v12.3c0,6.8,0.1,17.4,0.3,22.2
				h-17.2c0.2-4.8,0.3-15.4,0.3-22.2V79.4c0-7.4-1.5-10.1-6.1-10.1c-4.6,0-9.4,3.8-12.6,7.8h-3.9v-6.8h6.6l-3.2,3
				c6.4-9.5,12.5-14.1,20.5-14.1C301.4,59.1,306.6,65,306.6,77.2z M302,104.7l9.7,2.1v4.9h-27.3v-4.9l9.3-2.1H302z M337.9,77.8v11.8
				c0,6.8,0.1,17.4,0.3,22.2H321c0.2-4.8,0.3-15.4,0.3-22.2V79.3c0-8-1.7-10-6-10c-4.5,0-8.8,3-12.8,7.8h-3.8V70h7.5l-4.3,3.2
				c7.5-11,13.4-14.1,20.6-14.1C333.1,59.1,337.9,65.2,337.9,77.8z M333.3,104.7l10,2.1v4.9h-27.2v-4.9l8.8-2.1H333.3z"/>
			<path class="st1" d="M404.9,81.4c0,2.3-0.2,3.9-0.6,5.7H363v-5.6h19.8c5.1,0,6.4-1.9,6.4-6.6c0-6.9-3.3-10.4-7.2-10.4
				c-4.4,0-8.4,4.8-8.4,20.1c0,12.9,6.4,18.7,14.3,18.7c5.7,0,9.6-2.4,12.8-5.7l3.7,3.4c-4.3,8.3-11.9,12.3-22.2,12.3
				c-15.4,0-26.3-10.1-26.3-27.1c0-17.6,13.6-27.2,27.2-27.2C397,59.1,404.9,68.6,404.9,81.4z"/>
			<path class="st1" d="M447.3,104.2c5.1,0,8.6-3.8,12-8.9l1.3,1.7c-5.2,11.3-11.7,16.4-21,16.4c-12,0-21.1-9.5-21.1-26.7
				c0-17.2,11.3-27.6,23.3-27.6c9.2,0,13.6,5,18.5,14.4l-1.1,2.1c-4.1-5-7.2-7.5-11.5-7.5c-6.4,0-11.3,6-11.3,18.5
				C436.2,98.1,440.8,104.2,447.3,104.2z M475.8,106.8v4.9l-20.7,1.2l-1.4-9.4V68.5l0.6-1.1V45.3l-7.4-1.1v-4.5l22.4-4.8L471,36
				l-0.4,14.8v60.9l-7.2-7.7L475.8,106.8z"/>
			<path class="st1" d="M494.2,111.8c0.2-4.8,0.3-15.6,0.3-22.2v-5c0-5.8-0.1-9.1-0.3-13.3l-6.5-1v-4.2l22.1-7l1.8,1.1l-0.3,15.3v14
				c0,6.6,0.1,17.4,0.3,22.2H494.2z M516.7,106.8v4.9h-28.1v-4.9l9.8-2.1h8L516.7,106.8z M493.7,42.8c0-4.9,4-8.4,9-8.4
				c5,0,9,3.5,9,8.4c0,4.9-4,8.4-9,8.4C497.7,51.2,493.7,47.7,493.7,42.8z"/>
			<path class="st1" d="M550,82.3c4.4-1.3,11.9-3.3,16.8-4.4v4.4c-5,1.3-10.7,2.8-13.8,4.2c-4.8,2-7.9,5.6-7.9,10.6
				c0,5.3,2.8,7.7,6.4,7.7c2,0,3.7-0.8,7.1-3.3l4.3-3.2l1.1,1.5l-4.4,4.8c-5.1,5.4-8.4,8.7-16.1,8.7c-8.2,0-13.9-4.8-13.9-13.5
				C529.6,92.3,533.7,87,550,82.3z M558.1,103.1V76.6c0-9.4-1.8-12.1-8.6-12.1c-2.6,0-5.3,0.3-9.9,1.5l7.3-4.1l-0.8,7.3
				c-0.3,7-3.7,9.9-7.8,9.9c-3.8,0-6.3-1.8-7.1-5.3c0.6-8.8,9.1-14.8,24.3-14.8c13.6,0,18.9,5.7,18.9,19.9v23.7
				c0,2.1,0.9,3.1,2.4,3.1c1.1,0,2-0.6,3.2-2.3l2.8,1.9c-2.5,5.8-6.3,8-12.7,8C562.9,113.3,559,109.5,558.1,103.1z"/>
			<path class="st1" d="M596.2,104c0-5.3,4.2-9.6,9.5-9.6s9.5,4.4,9.5,9.6c0,5.2-4.2,9.4-9.5,9.4S596.2,109.1,596.2,104z"/>
		</g>
	</g>
</g>
<rect x="83.8" y="130.5" class="st2" width="521.2" height="15.5"/>
</svg>
