<?xml version="1.0" encoding="utf-8"?>
<!-- Generator: Adobe Illustrator 24.2.1, SVG Export Plug-In . SVG Version: 6.00 Build 0)  -->
<svg version="1.1" id="Layer_1" xmlns="http://www.w3.org/2000/svg" xmlns:xlink="http://www.w3.org/1999/xlink" x="0px" y="0px"
	 viewBox="0 0 283.5 283.5" style="enable-background:new 0 0 283.5 283.5;" xml:space="preserve">
<style type="text/css">
	.st0{fill:#FCB333;}
</style>
<g>
	<path class="st0" d="M118.3,169.3l13.9,11.3c5.3,4.3,13.1,3.6,17.5-1.6l8.7-10.3c3.1-3.7,3.8-8.8,1.8-13.2L110.5,45.7l-66.6,124
		c-3.5,6.5-2.4,14.4,2.6,19.7l17.3,18.4l37.8-37.7C106.1,165.6,113.4,165.3,118.3,169.3z"/>
	<path class="st0" d="M190.8,129.9l16.9-20.1C187.1,71.4,164.5,29.5,151.9,6c-4.3-8-15.7-8-20,0l-13.6,25.4l52,96.5
		C174.4,135.6,185.1,136.7,190.8,129.9z"/>
	<path class="st0" d="M239.4,168.9c-5-9.2-11.6-21.7-15.5-28.9l-73.7,72c-4.8,4.6-12.3,4.8-17.2,0.3L117.5,198
		c-4.5-4.1-11.3-4.4-16.1-0.7L74,218.7l56.1,59.7c6.4,6.8,17.3,6.8,23.7,0l82.9-88.2C242,184.4,243.2,175.8,239.4,168.9z"/>
</g>
</svg>
