<svg id="Layer_1" data-name="Layer 1" xmlns="http://www.w3.org/2000/svg" viewBox="0 0 236.58 62.38"><defs><style>.cls-1{opacity:0.2;}.cls-2{fill:#fff;}</style></defs><g class="cls-1"><path class="cls-2" d="M7108.59,7162.05a8.38,8.38,0,0,0-6.32,2.86l-.21-2.46-.71-.4-8.41,2.85v1.69l2.63.39c.09,1.71.13,2.61.13,5v11.61c0,2.1,0,4.41-.07,7.1l-2.39.5v2h12v-2l-2.76-.63c-.05-2.64-.08-4.93-.08-7v-1.77a6.93,6.93,0,0,0,5.41,2.33c4.84,0,9.18-4.21,9.18-11.13C7117,7165.84,7113.27,7162.05,7108.59,7162.05Zm-3.24,18.42a4.2,4.2,0,0,1-2.81-1.08V7167a4.91,4.91,0,0,1,2.94-1.23c2.53,0,4.24,2.24,4.24,7.31S7107.9,7180.47,7105.35,7180.47Z" transform="translate(-7078.89 -7137.17)"/><path class="cls-2" d="M7129.09,7171.49c-6.62,1.92-8.31,4.07-8.31,7.12,0,3.53,2.31,5.49,5.63,5.49,2.93,0,4.29-1.19,6.17-3.16.62,2,2.15,3.12,4.67,3.12s4.13-.89,5.17-3.24l-1.14-.76c-.51.72-.85.95-1.3.95-.62,0-1-.41-1-1.26v-9.62c0-5.75-2.18-8.08-7.69-8.08-6.18,0-9.63,2.42-9.86,6a2.68,2.68,0,0,0,2.89,2.15c1.66,0,3-1.15,3.15-4l.2-1.87c.42,0,.8-.06,1.18-.06,2.73,0,3.47,1.12,3.47,4.93v1.4C7131.14,7170.91,7130,7171.23,7129.09,7171.49Zm.61,9.14c-1.45,0-2.58-1-2.58-3.15a4.62,4.62,0,0,1,3.21-4.28,18.35,18.35,0,0,1,2-.74v7A4.47,4.47,0,0,1,7129.7,7180.63Z" transform="translate(-7078.89 -7137.17)"/><path class="cls-2" d="M7147.3,7181l-2.38.5v2h11.74v-2l-2.37-.46c-.05-2.19-.08-4.37-.08-6.56v-15.72l.17-6-.69-.44-9,1.94V7156l2.66.43v18C7147.37,7176.61,7147.34,7178.78,7147.3,7181Z" transform="translate(-7078.89 -7137.17)"/><path class="cls-2" d="M7162.79,7181l-2.31.5v2h11.39v-2l-2.14-.44c0-2.11-.06-4.75-.06-6.58v-5.69l.13-6.23-.74-.46-9,2.85v1.69l2.65.39c.09,1.71.13,3.05.13,5.41v2C7162.85,7176.24,7162.83,7178.85,7162.79,7181Z" transform="translate(-7078.89 -7137.17)"/><path class="cls-2" d="M7169.82,7155.46a3.64,3.64,0,1,0-3.63,3.41A3.44,3.44,0,0,0,7169.82,7155.46Z" transform="translate(-7078.89 -7137.17)"/><path class="cls-2" d="M7203.39,7181l-2.07.5v2h11.05v-2l-2.14-.45c0-2.09-.06-4.69-.06-6.57v-4.79c0-5.1-1.93-7.59-6.26-7.59-2.45,0-4.53.91-6.93,3.82-.84-2.55-2.74-3.82-5.67-3.82-2.58,0-4.67,1.21-6.72,3.62l-.26-3.16-.74-.46-8.47,2.85v1.69l2.63.39c.12,1.71.13,2.61.13,5v2.48c0,1.81,0,4.42-.06,6.52l-2.31.5v2h11.29v-2l-2-.43c0-2.11-.06-4.76-.06-6.59v-6.66a5.85,5.85,0,0,1,3.55-1.57c1.89,0,2.49,1.1,2.49,4.1v4.13c0,1.86,0,4.44-.06,6.52l-2.22.5v2h11.08v-2l-2-.44c0-2.09-.06-4.7-.06-6.58v-5a14.6,14.6,0,0,0-.1-1.68,5.68,5.68,0,0,1,3.63-1.55c1.76,0,2.44.85,2.44,4.08v4.15C7203.45,7176.3,7203.43,7178.88,7203.39,7181Z" transform="translate(-7078.89 -7137.17)"/><path class="cls-2" d="M7235.93,7171.11c0-5.19-3.21-9.06-8.87-9.06s-11.05,3.88-11.05,11c0,6.92,4.44,11,10.69,11,4.15,0,7.24-1.65,9-5l-1.48-1.39a6.89,6.89,0,0,1-5.2,2.3c-3,0-5.45-2.05-5.77-6.57h12.44A9,9,0,0,0,7235.93,7171.11Zm-9,.05h-3.7c.21-5.21,1.73-6.9,3.39-6.9s2.91,1.4,2.91,4.21C7229.54,7170.39,7229,7171.16,7226.94,7171.16Z" transform="translate(-7078.89 -7137.17)"/><path class="cls-2" d="M7249.36,7162.05c-4.84,0-9.45,4.22-9.45,11.21s3.71,10.84,8.57,10.84a7.68,7.68,0,0,0,6-2.65l.36,2.49,8.4-.49v-2l-2.11-.47v-22.27l.17-6-.69-.44-9.08,1.94V7156l3,.43v7.88A6.4,6.4,0,0,0,7249.36,7162.05Zm-2.18,11.13c0-5.08,2-7.5,4.59-7.5a4.08,4.08,0,0,1,2.53.9v12.8a4.17,4.17,0,0,1-2.65,1C7249,7180.38,7247.18,7177.89,7247.18,7173.18Z" transform="translate(-7078.89 -7137.17)"/><path class="cls-2" d="M7269.31,7181l-2.31.5v2h11.39v-2l-2.14-.44c0-2.11-.06-4.75-.06-6.58v-5.69l.13-6.23-.74-.46-9,2.85v1.69l2.65.39c.09,1.71.13,3.05.13,5.41v2C7269.37,7176.24,7269.35,7178.85,7269.31,7181Z" transform="translate(-7078.89 -7137.17)"/><path class="cls-2" d="M7276.34,7155.46a3.64,3.64,0,1,0-3.63,3.41A3.44,3.44,0,0,0,7276.34,7155.46Z" transform="translate(-7078.89 -7137.17)"/><path class="cls-2" d="M7290.46,7171.49c-6.62,1.92-8.31,4.07-8.31,7.12,0,3.53,2.31,5.49,5.63,5.49,2.92,0,4.29-1.19,6.17-3.16.62,2,2.15,3.12,4.67,3.12s4.13-.89,5.16-3.24l-1.13-.76c-.51.72-.86.95-1.31.95-.61,0-1-.41-1-1.26v-9.62c0-5.75-2.18-8.08-7.69-8.08-6.18,0-9.63,2.42-9.86,6a2.68,2.68,0,0,0,2.89,2.15c1.66,0,3-1.15,3.15-4l.19-1.87c.43,0,.81-.06,1.18-.06,2.74,0,3.48,1.12,3.48,4.93v1.4C7292.51,7170.91,7291.33,7171.23,7290.46,7171.49Zm.61,9.14c-1.45,0-2.58-1-2.58-3.15a4.62,4.62,0,0,1,3.21-4.28,18.35,18.35,0,0,1,2-.74v7A4.49,4.49,0,0,1,7291.07,7180.63Z" transform="translate(-7078.89 -7137.17)"/><path class="cls-2" d="M7311.6,7176.38a3.89,3.89,0,0,0-3.88,3.91,3.88,3.88,0,0,0,7.75,0A3.88,3.88,0,0,0,7311.6,7176.38Z" transform="translate(-7078.89 -7137.17)"/><rect class="cls-2" x="35.23" y="56.1" width="200.69" height="6.28"/><path class="cls-2" d="M7308.54,7166.33h6.27v-29.16H7078.89v56h6.28v-49.75h223.37Z" transform="translate(-7078.89 -7137.17)"/></g></svg>